<?xml version="1.0" standalone="no"?>
<!DOCTYPE svg PUBLIC "-//W3C//DTD SVG 20010904//EN"
 "http://www.w3.org/TR/2001/REC-SVG-20010904/DTD/svg10.dtd">
<svg version="1.0" xmlns="http://www.w3.org/2000/svg"
 width="300.000000pt" height="300.000000pt" viewBox="0 0 300.000000 300.000000"
 preserveAspectRatio="xMidYMid meet">

<g transform="translate(0.000000,300.000000) scale(0.100000,-0.100000)"
fill="#000000" stroke="none">
<path d="M1160 2341 c0 -10 5 -43 11 -72 6 -30 11 -66 10 -80 -1 -21 5 -28 24
-33 14 -4 36 -4 50 0 14 3 25 2 25 -3 0 -15 -36 -44 -43 -36 -4 3 -7 -3 -7
-14 0 -11 9 -28 20 -38 11 -10 20 -21 20 -25 0 -4 -24 -26 -54 -50 -57 -45
-107 -119 -126 -185 l-12 -40 -50 46 c-45 41 -49 48 -39 68 7 11 16 21 21 21
16 0 60 -23 60 -32 0 -14 22 -9 35 9 11 15 6 21 -45 49 -73 41 -105 47 -105
18 0 -20 -21 -54 -34 -54 -3 0 -14 14 -24 31 -12 22 -22 29 -33 25 -10 -4 -22
1 -29 10 -8 11 -19 15 -30 11 -16 -7 -16 -9 -1 -32 16 -24 16 -28 0 -54 -10
-16 -23 -27 -30 -24 -14 5 -113 -24 -127 -37 -18 -16 11 -18 68 -3 67 17 104
18 119 3 17 -17 29 -11 23 10 -7 27 2 25 54 -10 24 -16 50 -30 57 -30 7 0 33
-19 57 -41 35 -32 45 -49 45 -73 0 -45 28 -149 44 -161 7 -5 11 -15 9 -21 -4
-13 48 -29 140 -44 75 -12 194 -1 265 24 148 52 256 149 337 302 24 45 27 48
70 50 126 5 224 69 197 128 -5 11 -14 33 -21 49 -6 15 -16 27 -23 27 -7 1 -35
33 -63 73 -34 50 -50 67 -53 54 -5 -22 31 -79 70 -112 l31 -26 -26 -25 c-15
-14 -27 -33 -27 -44 0 -28 -11 -50 -25 -50 -18 0 -40 30 -37 50 3 16 -2 17
-43 9 -25 -5 -53 -13 -62 -18 -13 -7 -27 0 -58 27 l-42 36 18 31 c22 36 24 55
5 55 -14 0 -51 48 -43 56 3 3 17 2 31 -2 21 -5 25 -10 20 -28 -5 -17 -4 -19 7
-8 7 6 21 12 31 12 10 0 18 7 18 16 0 8 25 38 56 66 38 35 52 54 45 61 -13 13
-72 -28 -106 -74 -25 -33 -29 -32 -25 9 1 13 -4 29 -10 37 -8 10 -8 18 1 33
10 16 10 23 0 36 -16 19 -41 5 -41 -23 0 -9 -13 -22 -30 -29 -16 -8 -30 -18
-30 -22 0 -5 -11 -26 -25 -46 -17 -25 -25 -50 -25 -80 l0 -43 -32 10 c-18 5
-71 14 -117 19 -91 10 -106 18 -126 66 -7 18 -33 46 -57 63 -24 16 -55 40 -71
51 -15 12 -34 20 -41 17 -10 -4 -16 6 -20 34 -6 39 -26 55 -26 20z m80 -125
c0 -6 -5 -18 -10 -26 -9 -13 -11 -13 -20 0 -17 26 -12 49 10 43 11 -3 20 -10
20 -17z m115 -126 c10 -11 14 -20 9 -20 -5 0 -19 -3 -30 -6 -25 -7 -43 24 -22
38 19 11 23 10 43 -12z m365 -44 c0 -3 -4 -8 -10 -11 -5 -3 -10 -1 -10 4 0 6
5 11 10 11 6 0 10 -2 10 -4z m392 -119 c-2 -4 -11 -3 -19 2 -12 6 -22 4 -32
-7 -27 -27 -27 25 0 54 l22 23 17 -32 c9 -18 15 -35 12 -40z m-185 -32 c7 -20
3 -24 -26 -27 -15 -2 -28 5 -38 20 -15 22 -15 22 21 22 24 0 39 -5 43 -15z
m-94 -130 c-3 -9 -8 -14 -10 -11 -3 3 -2 9 2 15 9 16 15 13 8 -4z m-31 -57
c-7 -7 -12 -8 -12 -2 0 6 3 14 7 17 3 4 9 5 12 2 2 -3 -1 -11 -7 -17z m-32
-43 c-7 -9 -15 -13 -18 -10 -3 2 1 11 8 20 7 9 15 13 18 10 3 -2 -1 -11 -8
-20z m-35 -34 c-3 -6 -11 -11 -17 -11 -6 0 -6 6 2 15 14 17 26 13 15 -4z m-40
-40 c-3 -6 -11 -11 -17 -11 -6 0 -6 6 2 15 14 17 26 13 15 -4z m-40 -30 c-3
-6 -14 -11 -23 -11 -15 1 -15 2 2 15 21 16 32 13 21 -4z m-55 -31 c-8 -5 -17
-7 -19 -4 -3 3 1 9 9 14 8 5 17 7 19 4 3 -3 -1 -9 -9 -14z m-45 -20 c-3 -5
-13 -10 -21 -10 -8 0 -12 5 -9 10 3 6 13 10 21 10 8 0 12 -4 9 -10z m-380 -20
c3 -5 -1 -10 -9 -10 -8 0 -18 5 -21 10 -3 6 1 10 9 10 8 0 18 -4 21 -10z m325
0 c-19 -13 -30 -13 -30 0 0 6 10 10 23 10 18 0 19 -2 7 -10z m-275 -10 c3 -5
-1 -10 -9 -10 -9 0 -16 5 -16 10 0 6 4 10 9 10 6 0 13 -4 16 -10z m230 0 c-3
-5 -13 -10 -21 -10 -8 0 -14 5 -14 10 0 6 9 10 21 10 11 0 17 -4 14 -10z
m-165 -10 c0 -5 -9 -10 -20 -10 -11 0 -20 5 -20 10 0 6 9 10 20 10 11 0 20 -4
20 -10z m50 0 c0 -5 -7 -10 -15 -10 -8 0 -15 5 -15 10 0 6 7 10 15 10 8 0 15
-4 15 -10z m55 0 c-3 -5 -13 -10 -21 -10 -8 0 -14 5 -14 10 0 6 9 10 21 10 11
0 17 -4 14 -10z"/>
<path d="M1873 1742 c-60 -127 -192 -243 -335 -293 -51 -19 -86 -23 -183 -23
-66 -1 -137 3 -158 7 -27 6 -37 5 -32 -2 3 -6 17 -11 31 -11 13 0 24 -4 24
-10 0 -5 -7 -7 -16 -3 -29 11 1 -31 43 -60 60 -41 131 -69 201 -77 75 -10 95
-5 83 18 -13 25 -2 42 26 42 51 0 104 24 160 73 32 28 45 36 29 19 -18 -19
-24 -32 -16 -32 9 0 8 -6 -6 -22 -17 -21 -16 -21 9 1 15 14 25 26 22 29 -2 3
1 14 7 26 7 11 12 26 13 31 1 22 76 125 116 159 l42 35 -6 57 c-3 32 -11 60
-17 64 -6 4 -8 14 -4 23 15 41 -4 11 -33 -51z m31 -7 c-4 -8 -10 -15 -15 -15
-4 0 -6 7 -3 15 4 8 10 15 15 15 4 0 6 -7 3 -15z m-32 -57 c-7 -7 -12 -8 -12
-2 0 6 3 14 7 17 3 4 9 5 12 2 2 -3 -1 -11 -7 -17z m-30 -50 c-7 -7 -12 -8
-12 -2 0 6 3 14 7 17 3 4 9 5 12 2 2 -3 -1 -11 -7 -17z m-27 -37 c-3 -6 -11
-11 -17 -11 -6 0 -6 6 2 15 14 17 26 13 15 -4z m-35 -36 c-7 -9 -15 -13 -17
-11 -7 7 7 26 19 26 6 0 6 -6 -2 -15z m-40 -35 c0 -5 -7 -10 -16 -10 -8 0 -12
5 -9 10 3 6 10 10 16 10 5 0 9 -4 9 -10z m-50 -35 c-7 -9 -15 -13 -17 -11 -7
7 7 26 19 26 6 0 6 -6 -2 -15z m-45 -25 c-3 -5 -11 -10 -16 -10 -6 0 -7 5 -4
10 3 6 11 10 16 10 6 0 7 -4 4 -10z m-55 -30 c-8 -5 -17 -7 -19 -4 -3 3 1 9 9
14 8 5 17 7 19 4 3 -3 -1 -9 -9 -14z m-40 -10 c0 -5 -10 -10 -22 -10 -19 0
-20 2 -8 10 19 13 30 13 30 0z m-280 -20 c0 -5 -4 -10 -9 -10 -6 0 -13 5 -16
10 -3 6 1 10 9 10 9 0 16 -4 16 -10z m223 3 c-7 -2 -19 -2 -25 0 -7 3 -2 5 12
5 14 0 19 -2 13 -5z m-170 -10 c-7 -2 -19 -2 -25 0 -7 3 -2 5 12 5 14 0 19 -2
13 -5z m60 0 c-7 -2 -19 -2 -25 0 -7 3 -2 5 12 5 14 0 19 -2 13 -5z m50 0 c-7
-2 -19 -2 -25 0 -7 3 -2 5 12 5 14 0 19 -2 13 -5z"/>
<path d="M1970 1778 c-8 -17 -8 -31 1 -53 9 -22 13 -26 16 -13 4 15 7 15 40 2
43 -18 63 -12 63 19 0 29 -28 56 -55 55 -11 0 -28 3 -37 7 -13 5 -20 0 -28
-17z m38 -16 c3 -16 -1 -20 -12 -16 -19 7 -22 48 -3 42 6 -3 13 -14 15 -26z
m56 -4 c22 -31 20 -40 -6 -36 -17 2 -24 11 -26 31 -4 33 11 35 32 5z"/>
<path d="M910 1742 c0 -4 20 -18 45 -32 28 -15 45 -32 45 -43 0 -31 18 -9 22
28 4 34 -6 48 -15 23 -3 -10 -15 -7 -45 10 -44 24 -52 26 -52 14z"/>
<path d="M2010 1673 c43 -18 70 -42 70 -60 0 -20 -38 -16 -72 8 -20 15 -33 18
-40 11 -12 -12 58 -52 92 -52 25 0 37 26 23 49 -14 23 -73 61 -92 60 -9 0 0
-7 19 -16z"/>
<path d="M928 1655 c41 -18 43 -45 2 -45 -16 0 -30 -4 -30 -10 0 -5 12 -10 28
-10 15 0 42 -4 60 -9 28 -8 32 -7 32 9 0 22 -76 80 -104 80 -16 -1 -13 -4 12
-15z m62 -40 c10 -12 10 -15 -4 -15 -9 0 -16 7 -16 15 0 8 2 15 4 15 2 0 9 -7
16 -15z"/>
<path d="M1950 1560 c0 -5 4 -10 8 -10 5 0 27 -16 50 -35 40 -35 41 -35 52
-15 6 12 9 26 7 33 -3 7 -9 2 -14 -11 -9 -22 -9 -22 -43 13 -33 34 -60 45 -60
25z"/>
<path d="M953 1546 c57 -17 70 -26 36 -26 -34 0 -69 -11 -69 -21 0 -11 123 -4
127 8 5 14 -59 43 -105 49 -33 3 -32 2 11 -10z"/>
<path d="M1941 1501 c-6 -11 -8 -28 -4 -38 10 -28 45 -63 64 -63 22 0 44 26
29 35 -5 3 -10 1 -10 -4 0 -20 -28 -11 -49 15 -22 27 -28 64 -12 64 5 0 12 -5
14 -10 3 -6 4 -5 3 2 -4 20 -24 20 -35 -1z"/>
<path d="M1020 1470 c11 -7 2 -10 -32 -10 -70 0 -68 -18 3 -22 33 -1 63 1 67
6 6 10 -25 36 -42 36 -6 0 -4 -5 4 -10z"/>
<path d="M1073 1416 c4 -11 -7 -16 -44 -21 -27 -4 -49 -11 -49 -16 0 -5 12 -6
26 -3 19 5 29 1 40 -15 8 -11 23 -21 32 -21 16 1 16 1 0 11 -26 15 -22 29 8
29 21 0 25 -4 21 -20 -3 -11 -1 -18 4 -14 14 8 11 32 -7 59 -17 27 -40 34 -31
11z"/>
<path d="M1892 1403 c-8 -3 -22 -18 -31 -35 -10 -16 -34 -41 -52 -55 -27 -20
-29 -24 -12 -20 19 4 24 -1 33 -31 5 -21 10 -43 10 -49 0 -7 5 -13 11 -13 7 0
9 9 5 23 -13 48 -18 95 -10 100 5 2 33 8 63 12 43 6 53 5 49 -6 -2 -8 -18 -21
-36 -29 -35 -17 -41 -30 -14 -30 27 0 62 29 62 50 0 17 -31 44 -41 36 -2 -2
-16 -6 -31 -10 -37 -9 -38 18 -2 37 26 14 22 29 -4 20z"/>
<path d="M1685 1365 c-16 -13 -25 -24 -19 -25 6 0 21 11 34 25 30 32 24 32
-15 0z"/>
<path d="M1137 1336 c-3 -8 -22 -18 -42 -22 -20 -3 -39 -13 -42 -21 -6 -15 23
-53 40 -53 6 0 0 11 -12 24 l-22 24 26 6 c17 4 33 2 43 -6 13 -11 15 -10 9 5
-4 12 -1 17 11 17 16 -1 62 -32 62 -43 0 -2 -18 -12 -40 -22 -22 -10 -40 -22
-40 -27 0 -11 17 -10 25 2 3 6 13 10 21 10 11 0 12 -4 4 -19 -13 -24 -13 -51
-1 -51 5 0 11 12 13 28 3 23 7 27 30 24 14 -2 29 2 33 7 3 7 0 8 -9 5 -8 -3
-23 -1 -32 4 -16 9 -15 11 6 22 18 10 24 9 31 -1 6 -10 9 -11 9 -2 0 7 -18 24
-40 38 -22 14 -46 34 -52 45 -15 24 -24 25 -31 6z"/>
<path d="M1540 1316 c0 -2 11 -6 25 -8 13 -3 22 -1 19 3 -5 9 -44 13 -44 5z"/>
<path d="M1717 1254 c-15 -8 -25 -19 -22 -25 4 -5 11 -7 16 -4 5 4 9 -14 9
-39 0 -25 5 -48 10 -51 6 -3 10 5 10 19 0 14 12 37 26 51 47 47 11 82 -49 49z
m63 -8 c0 -16 -28 -42 -36 -33 -3 3 -3 15 1 26 7 23 35 29 35 7z"/>
<path d="M1270 1198 c-46 -51 -46 -54 -11 -73 20 -10 31 -12 31 -4 0 6 -9 13
-20 16 -11 3 -20 9 -20 13 0 16 27 29 51 23 21 -6 22 -4 11 9 -16 20 -1 32 28
23 29 -9 24 2 -7 18 -27 13 -30 12 -63 -25z"/>
<path d="M1615 1210 c-28 -46 -22 -120 10 -120 31 0 65 46 64 87 -1 21 -3 29
-6 18 -2 -11 -6 -30 -8 -42 -5 -23 -31 -53 -46 -53 -5 0 -9 18 -9 40 0 27 6
45 22 60 l22 20 -22 0 c-11 0 -24 -5 -27 -10z"/>
<path d="M1403 1184 c-3 -9 5 -26 21 -43 14 -15 26 -30 26 -34 0 -15 -41 -6
-60 13 -10 10 -22 15 -25 10 -9 -15 34 -52 57 -48 12 2 26 11 32 20 8 14 5 23
-17 46 -15 15 -27 31 -27 35 0 11 35 8 48 -5 13 -13 27 -5 17 11 -10 17 -65
13 -72 -5z"/>
<path d="M1500 1190 c0 -5 7 -10 15 -10 13 0 12 -7 -5 -41 -12 -22 -19 -46
-17 -52 3 -7 9 -1 14 12 6 14 23 28 43 35 18 6 35 18 38 26 2 10 1 11 -5 4 -4
-6 -18 -14 -31 -18 -21 -7 -22 -6 -10 19 8 18 17 25 30 22 10 -3 16 -1 12 4
-7 12 -84 11 -84 -1z"/>
<path d="M1760 1181 c0 -13 29 -35 37 -28 7 8 -15 37 -28 37 -5 0 -9 -4 -9 -9z"/>
</g>
</svg>
